<?xml version="1.0" encoding="UTF-8"?>
<svg version="1.1" xmlns="http://www.w3.org/2000/svg" width="4000" height="4000">
<path d="M0 0 C83.82 0 167.64 0 254 0 C259.61972641 12.3633981 259.61972641 12.3633981 261.54199219 17.22387695 C261.98327454 18.3341777 262.42455688 19.44447845 262.87921143 20.58842468 C263.5809549 22.36416618 263.5809549 22.36416618 264.296875 24.17578125 C265.35713554 26.84519656 266.41971227 29.51368778 267.48242188 32.18212891 C267.90202871 33.23660925 267.90202871 33.23660925 268.33011246 34.31239223 C271.49717086 42.26348562 274.71091835 50.19560419 277.92448425 58.12798691 C279.9889098 63.22559112 282.04905675 68.32492644 284.10997772 73.42394829 C285.87564366 77.79155399 287.64329647 82.158339 289.41455078 86.52368164 C291.16407247 90.83581487 292.90857904 95.14994547 294.64962006 99.46550941 C295.30645335 101.09098762 295.96512883 102.71572273 296.62570953 104.33968163 C297.53684094 106.58026554 298.44154303 108.82334155 299.34472656 111.06713867 C299.7512571 112.06027321 299.7512571 112.06027321 300.16600037 113.07347107 C301.29327318 115.89126847 302 117.93167142 302 121 C302.66 121.33 303.32 121.66 304 122 C305.23429208 124.60624186 306.3593715 127.19890724 307.4453125 129.8671875 C307.79208038 130.70539032 308.13884827 131.54359314 308.49612427 132.40719604 C313.38417348 144.27434759 318.12340976 156.20276877 322.875 168.125 C323.81363698 170.47662841 324.75243844 172.82819117 325.69140625 175.1796875 C326.15484436 176.34054871 326.61828247 177.50140991 327.09576416 178.69744873 C328.02094193 181.01490198 328.94619328 183.33232586 329.871521 185.64971924 C332.21598181 191.52300767 334.55562007 197.39814894 336.88769531 203.27636719 C337.57993698 205.0171907 337.57993698 205.0171907 338.28616333 206.79318237 C339.16706226 209.00843547 340.04594939 211.2244899 340.9225769 213.44143677 C341.50835007 214.91264481 341.50835007 214.91264481 342.10595703 216.41357422 C342.62030807 217.71063797 342.62030807 217.71063797 343.14505005 219.03390503 C343.84132682 220.96348494 343.84132682 220.96348494 345 222 C345.38031372 221.00770386 345.38031372 221.00770386 345.76831055 219.99536133 C352.79153992 201.70062303 359.96181169 183.46566319 367.1875 165.25 C367.86842712 163.53336151 367.86842712 163.53336151 368.56311035 161.78204346 C370.39997156 157.15179473 372.23716189 152.52167676 374.07476807 147.89172363 C378.20202404 137.49282371 382.32317411 127.09152241 386.4375 116.6875 C386.76754028 115.85301331 387.09758057 115.01852661 387.43762207 114.15875244 C394.94500816 95.17229847 402.4065421 76.16779411 409.86694336 57.1628418 C410.55620911 55.4070858 410.55620911 55.4070858 411.25939941 53.61585999 C412.12415051 51.41291273 412.98874269 49.20990308 413.85314941 47.00682068 C414.23926392 46.02310989 414.62537842 45.03939911 415.02319336 44.02587891 C415.35830429 43.17184479 415.69341522 42.31781067 416.03868103 41.43789673 C417.01763452 38.955279 418.00699077 36.47702566 419 34 C419.37125 33.071875 419.7425 32.14375 420.125 31.1875 C420.41375 30.465625 420.7025 29.74375 421 29 C421.66 29 422.32 29 423 29 C423.12310547 28.28811523 423.24621094 27.57623047 423.37304688 26.84277344 C424.01834643 23.91681236 424.93698686 21.30339063 426.03125 18.515625 C426.62873047 16.99001953 426.62873047 16.99001953 427.23828125 15.43359375 C427.65464844 14.38300781 428.07101562 13.33242187 428.5 12.25 C429.12455078 10.65091797 429.12455078 10.65091797 429.76171875 9.01953125 C432.86551339 1.13448661 432.86551339 1.13448661 434 0 C437.04664691 -0.09802498 440.07063761 -0.12990985 443.11769104 -0.12025452 C444.08634737 -0.12110894 445.05500371 -0.12196337 446.05301327 -0.12284368 C449.32515544 -0.12450143 452.59724725 -0.11897231 455.86938477 -0.11352539 C458.20447793 -0.11324356 460.53957119 -0.11340118 462.87466431 -0.1139679 C469.23598016 -0.11425602 475.59727734 -0.10835694 481.95858884 -0.10139394 C487.92639161 -0.09579343 493.89419362 -0.09477212 499.86199867 -0.09374207 C511.68559054 -0.09155124 523.50917554 -0.08489032 535.33276367 -0.07543945 C546.82104458 -0.06626613 558.3093236 -0.05919637 569.79760742 -0.05493164 C570.51248764 -0.05466364 571.22736786 -0.05439565 571.96391112 -0.05411953 C578.18194421 -0.05180681 584.39997736 -0.04965395 590.61801052 -0.04751682 C617.41201349 -0.0381003 644.20599823 -0.01818186 671 0 C671 34.65 671 69.3 671 105 C652.19 105 633.38 105 614 105 C614 190.8 614 276.6 614 365 C632.81 365 651.62 365 671 365 C671 399.32 671 433.64 671 469 C589.49 469 507.98 469 424 469 C424 434.68 424 400.36 424 365 C436.54 365 449.08 365 462 365 C461.505 282.83 461.505 282.83 461 199 C445.95797523 239.75603341 445.95797523 239.75603341 431.05859375 280.5625 C429.46336846 284.88863667 427.68209944 289.08615404 425.71899414 293.2578125 C424.87283803 294.99400487 424.87283803 294.99400487 425 297 C424.34 297 423.68 297 423 297 C422.91943359 297.75861328 422.83886719 298.51722656 422.75585938 299.29882812 C421.6949644 304.49364977 419.79490761 309.27353544 417.90625 314.21875 C417.48784851 315.32791779 417.06944702 316.43708557 416.6383667 317.5798645 C415.50063771 320.59392396 414.3582594 323.60617277 413.21412659 326.61780548 C412.01170027 329.78699183 410.8158889 332.9586691 409.62011719 336.13037109 C409.26033846 337.08460622 409.26033846 337.08460622 408.89329147 338.05811882 C408.4071482 339.34756959 407.92103246 340.63703074 407.43494415 341.92650223 C406.70059112 343.87390701 405.96556661 345.82105727 405.23040771 347.76815796 C400.85210858 359.36815122 396.5383828 370.99149333 392.25 382.625 C391.565958 384.47885592 390.881876 386.33269708 390.19775391 388.18652344 C387.75620837 394.80449058 385.31765157 401.42355816 382.87902832 408.04260254 C380.5807497 414.28029843 378.28111065 420.51748988 375.9798584 426.75408936 C374.91660521 429.6371842 373.85521349 432.52095918 372.79394531 435.40478516 C372.13095266 437.20218285 371.46787109 438.99954775 370.8046875 440.796875 C370.52299713 441.56395782 370.24130676 442.33104065 369.95108032 443.12136841 C366.74628829 451.79390963 363.35282963 460.3784381 360 469 C331.29 469 302.58 469 273 469 C269.95336994 462.90673988 267.01560076 456.9379846 264.390625 450.6796875 C264.06712067 449.91599854 263.74361633 449.15230957 263.41030884 448.36547852 C262.35391222 445.86989243 261.3019956 443.37244407 260.25 440.875 C259.49399932 439.08725558 258.73764437 437.29966093 257.98095703 435.51220703 C256.41658066 431.81601468 254.85370551 428.11919329 253.29199219 424.421875 C250.17061536 417.03460559 247.03341769 409.65407616 243.89511108 402.27398682 C242.85796726 399.83494425 241.82115842 397.39575951 240.78442383 394.95654297 C238.52354112 389.63744356 236.26189797 384.31866775 234 379 C233.578255 378.00826782 233.15651001 377.01653564 232.72198486 375.99475098 C226.50248204 361.37058441 220.27551739 346.74961456 214.04101562 332.13183594 C211.99910437 327.34408187 209.95887748 322.55561506 207.91992188 317.76660156 C197.55258049 293.4208994 187.1553558 269.10087485 176.20904541 245.00888062 C169.59865898 230.45824829 163.32704151 215.78585536 157.24829102 201.00561523 C155.8585228 197.65935345 154.42732154 194.33041692 153 191 C152.67 248.42 152.34 305.84 152 365 C167.84 365 183.68 365 200 365 C200 399.32 200 433.64 200 469 C134 469 68 469 0 469 C0 434.68 0 400.36 0 365 C18.48 364.67 36.96 364.34 56 364 C56 278.86 56 193.72 56 106 C37.52 105.67 19.04 105.34 0 105 C0 70.35 0 35.7 0 0 Z " fill="#FEFEFE" transform="translate(1577,1766)"/>
<path d="M0 0 C72.27 0 144.54 0 219 0 C235.93087424 31.60429858 235.93087424 31.60429858 241.71005249 42.95651245 C248.10641743 55.51099377 254.70130949 67.93745922 261.50341797 80.27734375 C271.39839944 98.27878475 280.89922523 116.47024566 290.28820801 134.73826599 C292.91304251 139.84100556 295.56977862 144.92617368 298.25 150 C306.84244187 166.2680945 315.31455453 182.59877812 323.77929688 198.93359375 C331.16636898 213.18533729 338.58194328 227.42207777 346.0625 241.625 C351.39066346 251.74176606 356.69450496 261.87132765 362 272 C362.33 216.89 362.66 161.78 363 105 C347.82 105 332.64 105 317 105 C317 70.35 317 35.7 317 0 C379.04 0 441.08 0 505 0 C505 34.65 505 69.3 505 105 C489.82 105 474.64 105 459 105 C459 225.12 459 345.24 459 469 C399.6 469 340.2 469 279 469 C271.575 455.14 271.575 455.14 264 441 C262.02 437.535 262.02 437.535 260 434 C260 433.34 260 432.68 260 432 C259.34 431.67 258.68 431.34 258 431 C256.95703125 429.40649414 256.95703125 429.40649414 255.8125 427.28515625 C255.14963989 426.06481689 255.14963989 426.06481689 254.47338867 424.81982422 C253.98717041 423.90990723 253.50095215 422.99999023 253 422.0625 C252.48091064 421.10102051 251.96182129 420.13954102 251.42700195 419.14892578 C245.846744 408.78224734 240.35320848 398.36870207 234.85424805 387.95874023 C228.22721931 375.41383348 221.53813529 362.90328502 214.82666016 350.40332031 C211.71409629 344.60418367 208.60738887 338.80191071 205.5 333 C204.25002709 330.66665216 203.00002711 328.33331881 201.75 326 C199.25 321.33333333 196.75 316.66666667 194.25 312 C193.3221167 310.2679834 193.3221167 310.2679834 192.37548828 308.50097656 C191.12378843 306.16442672 189.87216098 303.82783809 188.62060547 301.49121094 C185.52220165 295.70677209 182.42259857 289.92298277 179.3203125 284.140625 C178.08844982 281.84379926 176.85667924 279.54692412 175.625 277.25 C175.01575684 276.11401367 174.40651367 274.97802734 173.77880859 273.80761719 C170.36848848 267.44227915 166.97287888 261.06945339 163.59375 254.6875 C163.22091888 253.98381287 162.84808777 253.28012573 162.46395874 252.55511475 C160.66430269 249.15821826 158.86656176 245.76033996 157.07275391 242.36035156 C152.1941067 233.14552559 147.11619638 224.09546023 142 215 C141.505 288.26 141.505 288.26 141 363 C156.84 363 172.68 363 189 363 C189 397.98 189 432.96 189 469 C126.3 469 63.6 469 -1 469 C-1 434.02 -1 399.04 -1 363 C14.84 363 30.68 363 47 363 C47 277.53 47 192.06 47 104 C31.49 104 15.98 104 0 104 C0 69.68 0 35.36 0 0 Z " fill="#FEFEFE" transform="translate(2583,1766)"/>
<path d="M0 0 C145.86 0 291.72 0 442 0 C442 61.38 442 122.76 442 186 C414.28 186 386.56 186 358 186 C356.02859402 175.48583479 354.14927135 165.00308769 352.51953125 154.4375 C352.29983307 153.02543829 352.07991368 151.61341099 351.85978699 150.20141602 C351.29046695 146.54574706 350.72408286 142.8896296 350.15838623 139.23339844 C349.47396289 134.81405505 348.78575779 130.39529908 348.0982132 125.97644043 C347.06263466 119.31806379 346.03175404 112.65897539 345 106 C324.705 105.505 324.705 105.505 304 105 C304 189.81 304 274.62 304 362 C319.84 362 335.68 362 352 362 C352 397.31 352 432.62 352 469 C264.88 469 177.76 469 88 469 C88 363 88 363 89 362 C104.84 362 120.68 362 137 362 C137 277.19 137 192.38 137 105 C123.8 105 110.6 105 97 105 C96.34 110.28 95.68 115.56 95 121 C94.28827475 125.04858205 93.53896507 129.09075861 92.75 133.125 C89.50231602 150.69201791 86.78622486 168.3539092 84 186 C56.28 186 28.56 186 0 186 C0 124.62 0 63.24 0 0 Z " fill="#FEFEFE" transform="translate(3122,1766)"/>
<path d="M0 0 C1.26676575 0.00115814 2.53353149 0.00231628 3.83868408 0.00350952 C23.58140385 0.03911813 42.98209648 0.71754282 62.5625 3.3125 C63.57280273 3.44060059 64.58310547 3.56870117 65.62402344 3.70068359 C74.58490305 4.85512497 83.30674759 6.43136952 92.10400391 8.50048828 C95.53503928 9.30605257 98.97140701 10.08356427 102.41015625 10.85546875 C167.21147465 25.54645087 227.83977108 50.30790496 282.5625 88.3125 C283.17303223 88.73160645 283.78356445 89.15071289 284.41259766 89.58251953 C294.21082355 96.31996629 303.43836894 103.69338025 312.5625 111.3125 C313.16594238 111.81539551 313.76938477 112.31829102 314.39111328 112.83642578 C328.08638993 124.29388742 340.9223231 136.58594663 353.5625 149.1875 C354.05740936 149.67973053 354.55231873 150.17196106 355.06222534 150.67910767 C360.78383978 156.3771837 366.32112554 162.16732655 371.5625 168.3125 C372.58374143 169.4693902 373.60714781 170.62437326 374.6328125 171.77734375 C382.73584237 180.95893839 390.26340303 190.48293307 397.5625 200.3125 C398.10938477 201.0437207 398.65626953 201.77494141 399.21972656 202.52832031 C406.81203134 212.70637774 413.79095654 223.11206217 420.23291016 234.0546875 C421.54473201 236.2823277 422.87139078 238.50062346 424.19921875 240.71875 C455.63878003 293.66776902 475.4045387 350.30292804 486.50450134 410.72148132 C487.14236692 414.17097227 487.83671378 417.59026882 488.66015625 421 C490.01895938 426.91999383 490.51095159 432.96673074 491.125 439 C491.25068359 440.17755859 491.37636719 441.35511719 491.50585938 442.56835938 C491.88008272 446.1479722 492.22789617 449.72897699 492.5625 453.3125 C492.66256348 454.35510986 492.76262695 455.39771973 492.86572266 456.47192383 C493.85148904 468.16879678 493.80231917 479.89433021 493.8125 491.625 C493.81450409 492.74735046 493.81650818 493.86970093 493.818573 495.02606201 C493.82638461 512.93634347 493.04697721 530.54745887 490.91845703 548.33300781 C490.60868667 550.92590045 490.3441264 553.51847475 490.08984375 556.1171875 C489.6927084 559.68410384 488.98416055 563.1008364 488.16503906 566.59228516 C487.39905187 570.05040078 486.75814657 573.5288249 486.1171875 577.01171875 C477.84727598 621.61946573 464.82929214 664.20692061 445.5625 705.3125 C445.08071289 706.34246094 444.59892578 707.37242187 444.10253906 708.43359375 C428.96956577 740.43945636 409.67925222 772.39068945 386.5625 799.3125 C385.66930773 800.37654341 384.77745369 801.44171116 383.88671875 802.5078125 C378.98362658 808.363218 374.0044648 814.13509324 368.85913086 819.78027344 C367.43272521 821.35300431 366.01417929 822.93294835 364.6081543 824.52392578 C358.84121595 831.03500753 352.80138184 837.22792408 346.6418457 843.36352539 C344.99508596 845.00489796 343.35377905 846.65158819 341.71289062 848.29882812 C336.16872229 853.84686065 330.55643713 859.24737716 324.5625 864.3125 C323.4441924 865.28517202 322.32697493 866.25909904 321.2109375 867.234375 C255.89050645 923.82239193 174.9148567 962.06938951 89.85879517 977.32937622 C86.72070918 977.89416104 83.63948333 978.50639697 80.5703125 979.37109375 C74.72387838 980.91830278 68.62402953 981.41429162 62.62890625 982.11743164 C60.46272227 982.37203548 58.29776733 982.63556058 56.1328125 982.90039062 C37.97120497 985.09527161 20.03822458 985.55133954 1.75 985.5625 C0.458591 985.56383942 -0.83281799 985.56517883 -2.1633606 985.56655884 C-22.09468093 985.56207562 -41.67254964 984.97133816 -61.4375 982.3125 C-62.41541504 982.18439941 -63.39333008 982.05629883 -64.40087891 981.92431641 C-73.03634121 980.76187955 -81.44188496 979.11216043 -89.92578125 977.12451172 C-93.45732749 976.30791531 -96.99576809 975.53342157 -100.5390625 974.76953125 C-152.44170754 963.48739249 -201.49854485 945.02275705 -247.4375 918.3125 C-249.04023556 917.38909893 -250.64309265 916.46590877 -252.24609375 915.54296875 C-260.5169379 910.75658387 -268.5813916 905.76109131 -276.4375 900.3125 C-277.3960791 899.65145264 -277.3960791 899.65145264 -278.37402344 898.97705078 C-298.14815331 885.31467233 -316.29756288 870.15515508 -333.86572266 853.77099609 C-335.983341 851.80599889 -338.11983478 849.86212866 -340.25634766 847.91772461 C-346.96388652 841.80685574 -353.3760918 835.6152852 -359.296875 828.734375 C-361.52209928 826.21678548 -363.8071791 823.76592629 -366.10717773 821.31689453 C-372.17116894 814.85616116 -377.91370772 808.24561599 -383.4375 801.3125 C-384.32133877 800.24218464 -385.20684221 799.17324238 -386.09375 798.10546875 C-400.19371959 781.00319676 -412.44334553 762.53930081 -423.4375 743.3125 C-423.86724121 742.56194336 -424.29698242 741.81138672 -424.73974609 741.03808594 C-427.27186244 736.592059 -429.74837232 732.11835959 -432.18554688 727.61962891 C-433.02806145 726.06702307 -433.87582209 724.51725376 -434.72851562 722.97021484 C-456.98058331 682.5291422 -472.30361392 638.08288974 -481.46484375 592.90234375 C-482.26597084 588.97529734 -483.31188808 585.1603031 -484.4375 581.3125 C-496.42448994 525.89016228 -500.79273723 450.16853353 -482.4675293 395.41430664 C-481.47836942 392.43557325 -480.72239532 389.49681953 -480.02734375 386.4375 C-463.45060585 314.84226393 -433.37777368 246.99219626 -387.4375 189.3125 C-386.69113281 188.37277344 -385.94476562 187.43304687 -385.17578125 186.46484375 C-380.63692718 180.83286253 -375.90019154 175.42615432 -370.9921875 170.11328125 C-368.99729973 167.92622539 -367.04254783 165.71858113 -365.1015625 163.484375 C-361.46956947 159.3202847 -357.72343863 155.27402343 -353.9375 151.25 C-352.99970703 150.24743164 -352.99970703 150.24743164 -352.04296875 149.22460938 C-346.1941951 142.99439397 -340.27152254 136.96303681 -333.79296875 131.38671875 C-331.42136948 129.29829552 -329.10887598 127.15759917 -326.79980469 125.00073242 C-320.54720194 119.16466604 -314.12407381 113.65104624 -307.4375 108.3125 C-306.28425101 107.36829207 -305.13195879 106.42291473 -303.98046875 105.4765625 C-295.12511275 98.23693295 -285.96602972 91.63426887 -276.4375 85.3125 C-275.78620117 84.87615234 -275.13490234 84.43980469 -274.46386719 83.99023438 C-217.85539422 46.13910089 -153.82194011 19.85795572 -86.6875 8.1015625 C-83.91855675 7.61314477 -81.21827867 7.02223711 -78.5 6.3046875 C-73.85997442 5.1092174 -69.18213327 4.44931656 -64.4375 3.8125 C-63.62539063 3.69519531 -62.81328125 3.57789063 -61.9765625 3.45703125 C-41.36562607 0.64644901 -20.77830128 -0.05912511 0 0 Z M-116.4375 58.3125 C-117.42041016 58.57643555 -118.40332031 58.84037109 -119.41601562 59.11230469 C-143.18289014 65.57522671 -166.03807874 74.09982854 -188.4375 84.3125 C-189.31857422 84.71049805 -190.19964844 85.10849609 -191.10742188 85.51855469 C-236.57058167 106.15443502 -279.16004488 135.92441349 -313.9140625 171.8515625 C-315.4375 173.3125 -315.4375 173.3125 -317.4375 174.3125 C-317.4375 174.9725 -317.4375 175.6325 -317.4375 176.3125 C-318.0975 176.3125 -318.7575 176.3125 -319.4375 176.3125 C-320.93799936 177.79611694 -320.93799936 177.79611694 -322.5 179.75 C-325.14333144 182.86945946 -327.87808145 185.77794593 -330.8125 188.625 C-334.8706377 192.62801868 -338.46759344 196.87682856 -342.00390625 201.34375 C-344.03044963 203.81593775 -346.1119362 206.18410932 -348.25390625 208.5546875 C-352.37168174 213.16352987 -356.12876361 217.97798757 -359.8125 222.9375 C-360.46605469 223.81575439 -361.11960937 224.69400879 -361.79296875 225.59887695 C-411.11297709 292.30126989 -440.27433408 371.84408797 -447.4375 454.3125 C-447.5317627 455.32159424 -447.62602539 456.33068848 -447.72314453 457.37036133 C-455.06086983 544.86518782 -435.58018421 636.53392375 -347.4609375 777.8828125 C-339.2484263 787.58295309 -330.84538518 797.19295492 -321.6796875 806.0078125 C-320.4375 807.3125 -320.4375 807.3125 -319.4375 809.3125 C-318.7775 809.3125 -318.1175 809.3125 -317.4375 809.3125 C-317.4375 809.9725 -317.4375 810.6325 -317.4375 811.3125 C-315.98745757 812.77891754 -315.98745757 812.77891754 -314.0625 814.3125 C-310.74029584 817.12673972 -307.66208692 820.06780432 -304.625 823.1875 C-300.36363385 827.50107278 -295.87333307 831.33065339 -291.13671875 835.109375 C-288.57892028 837.19707158 -286.16541649 839.37546639 -283.75 841.625 C-263.27084104 860.13256291 -238.61603789 875.18565744 -214.4375 888.3125 C-213.61717285 888.76641113 -212.7968457 889.22032227 -211.95166016 889.68798828 C-161.51065068 917.55938576 -103.79897922 934.71481082 -46.4375 940.3125 C-45.43074219 940.41401367 -44.42398437 940.51552734 -43.38671875 940.62011719 C8.04235627 945.59661804 60.45571869 941.92777538 110.5625 929.3125 C111.69751953 929.03067871 112.83253906 928.74885742 114.00195312 928.45849609 C143.32950486 921.07770174 171.46086806 910.73485257 198.5625 897.3125 C200.22055664 896.49676514 200.22055664 896.49676514 201.91210938 895.66455078 C231.88207474 880.82093586 259.99150373 862.89119995 285.5625 841.3125 C286.15724121 840.81540527 286.75198242 840.31831055 287.36474609 839.80615234 C299.97699226 829.25829698 311.91221091 818.03439988 323.5625 806.4375 C324.60337769 805.40363159 324.60337769 805.40363159 325.6652832 804.34887695 C330.1677445 799.83228261 334.40255276 795.14411815 338.5625 790.3125 C339.58424856 789.15605766 340.60763679 788.00106154 341.6328125 786.84765625 C349.73395622 777.66741026 357.27238902 768.14673047 364.5625 758.3125 C365.0069043 757.71614746 365.45130859 757.11979492 365.90917969 756.50537109 C402.43409726 707.27674468 427.59685533 649.12319646 440.5625 589.3125 C440.91151367 587.70979248 440.91151367 587.70979248 441.26757812 586.07470703 C446.71659414 560.4247449 450.12044287 533.55646638 450.5625 507.3125 C450.58296387 506.29333496 450.60342773 505.27416992 450.62451172 504.22412109 C451.50415167 453.60484027 444.8027538 403.59831115 429.5625 355.3125 C429.22524902 354.24161133 428.88799805 353.17072266 428.54052734 352.06738281 C409.56807996 292.76385245 377.65598103 238.74646121 335.79296875 192.7890625 C334.55167689 191.41081549 333.31732149 190.02590146 332.11157227 188.61645508 C327.05193335 182.7196258 321.62914696 177.23067511 316.125 171.75 C315.22201172 170.84314453 314.31902344 169.93628906 313.38867188 169.00195312 C308.27497382 163.89566086 303.06617362 158.99420119 297.5625 154.3125 C296.44450201 153.33947213 295.32728536 152.36554561 294.2109375 151.390625 C241.50642507 105.73089334 178.34048598 72.87224408 110.5625 56.3125 C109.50836914 56.04985352 108.45423828 55.78720703 107.36816406 55.51660156 C34.33991535 37.50994103 -43.85731487 38.68896847 -116.4375 58.3125 Z " fill="#FEFEFE" transform="translate(906.4375,1507.6875)"/>
<path d="M0 0 C5.47578497 4.80057539 10.23702432 10.21105223 14.95703125 15.73828125 C18.23901765 19.37168493 21.75182031 22.77152644 25.23266602 26.21313477 C28.76391641 29.7198874 32.10665808 33.31378526 35.328125 37.109375 C38.01142844 40.14376487 40.92996621 42.93766937 43.8125 45.78125 C46.40196881 48.40771122 48.78836964 51.16976458 51.1875 53.96875 C53.2109288 56.23638572 55.33653347 58.3657695 57.5 60.5 C60.24500542 63.20803565 62.8727091 65.94169249 65.375 68.875 C68.70246527 72.75962224 72.30585985 76.33554047 75.94384766 79.92431641 C79.25610278 83.2091503 82.35776005 86.60615042 85.37109375 90.1640625 C87.09091197 92.10246673 88.92538293 93.85025746 90.8125 95.625 C95.64899822 100.4290385 96.20661033 105.37507685 96.55859375 111.94921875 C97.11020893 114.51203266 97.95391635 115.39892745 100 117 C103.84049135 118.28016378 107.59945914 118.3817314 111.609375 118.61328125 C113.39912592 118.72507045 115.18883802 118.8374826 116.97851562 118.95043945 C117.91993408 119.00898102 118.86135254 119.06752258 119.83129883 119.12783813 C215.8237395 125.20113653 215.8237395 125.20113653 237.9375 148.9375 C243.72980356 156.10495477 246.10998676 162.86624946 246.14717102 172.06997681 C246.15790398 173.89914139 246.15790398 173.89914139 246.16885376 175.76525879 C246.17169366 177.10864232 246.17440543 178.45202613 246.17700195 179.79541016 C246.18327174 181.21670699 246.18991899 182.63800221 246.19691467 184.05929565 C246.21789934 188.71920645 246.22831305 193.37911736 246.23828125 198.0390625 C246.24233115 199.64758699 246.24644814 201.25611132 246.25063133 202.86463547 C246.26967214 210.42463731 246.28390448 217.98462948 246.2922433 225.54465067 C246.30200646 234.25060343 246.32830642 242.95630132 246.36874419 251.66216433 C246.39897963 258.40463392 246.41371926 265.14703075 246.41702431 271.88956678 C246.41936666 275.91022343 246.42821986 279.93060746 246.45348549 283.95119095 C246.47690134 287.73848307 246.48094585 291.52532569 246.47072411 295.31267166 C246.46999891 297.34901045 246.48899524 299.38532711 246.50878906 301.42156982 C246.44639738 312.53054654 244.14477118 322.35205898 236.42578125 330.703125 C205.91491455 360.12660232 141.52511245 358.38839138 102.5859375 358.26074219 C99.07259285 358.24932629 95.55955052 358.25615714 92.04621601 358.26761246 C70.21869162 358.32813226 48.60322378 357.52848248 27.0625 353.75 C25.81670166 353.53601562 24.57090332 353.32203125 23.28735352 353.1015625 C-28.54413568 343.93216135 -28.54413568 343.93216135 -46 324 C-46.33 323.34 -46.66 322.68 -47 322 C-51.75450855 323.0259649 -56.47974527 324.10404473 -61.1862793 325.33203125 C-75.03645914 328.9428999 -88.91433882 331.81478046 -103.00292969 334.32110596 C-110.04354402 335.57579631 -117.0783723 336.86220214 -124.11328125 338.1484375 C-124.89896107 338.29187969 -125.68464088 338.43532188 -126.49412918 338.58311081 C-148.72042624 342.64495676 -170.90297148 346.9373204 -193.09106445 351.20184326 C-215.39043319 355.48671343 -237.69475924 359.74581708 -260 364 C-261.20380562 364.22964447 -262.40761124 364.45928894 -263.64789581 364.69589233 C-277.50306722 367.33831533 -291.36013175 369.97022403 -305.2229557 372.5722332 C-310.50385984 373.56344496 -315.78394501 374.55853625 -321.06201172 375.5647583 C-325.95390113 376.49713493 -330.84793077 377.41729862 -335.74388695 378.32807159 C-337.51526483 378.65965087 -339.28586192 378.99543675 -341.05553627 379.33599091 C-369.74654892 384.84818467 -369.74654892 384.84818467 -383 376 C-388.41905647 371.88490399 -392.93725458 367.1144894 -397.3203125 361.93359375 C-398.97349575 360.0305107 -400.70004278 358.26395808 -402.5 356.5 C-404.87494665 354.17024706 -407.10736494 351.77523634 -409.27734375 349.25390625 C-412.7807767 345.22500462 -416.39677944 341.31856263 -420.0625 337.4375 C-421.37781608 336.04056408 -422.69291487 334.64342355 -424.0078125 333.24609375 C-424.66942383 332.54339355 -425.33103516 331.84069336 -426.01269531 331.11669922 C-427.9496579 329.0536199 -429.87881896 326.98359135 -431.8046875 324.91015625 C-437.16565308 319.13889088 -442.52511523 313.39959298 -448.15014648 307.8828125 C-449.89774768 306.10407416 -451.5153367 304.27121056 -453.12890625 302.37109375 C-457.3541687 297.51033572 -461.91191424 293.01560415 -466.5 288.5 C-492.57024122 262.84161094 -492.57024122 262.84161094 -493.12863445 250.05423069 C-493.1303103 248.89926562 -493.13198614 247.74430056 -493.13371277 246.55433655 C-493.13597833 245.9092454 -493.13824388 245.26415426 -493.14057809 244.5995149 C-493.14690313 242.44010431 -493.14608969 240.28075672 -493.14526367 238.12133789 C-493.14825607 236.5722292 -493.15165878 235.02312125 -493.15544128 233.47401428 C-493.16427657 229.26743403 -493.16661918 225.06087411 -493.16725707 220.85428548 C-493.1682067 217.34278506 -493.17188555 213.83128938 -493.17542917 210.31979078 C-493.18357167 202.03586394 -493.18601356 193.75194796 -493.18530273 185.46801758 C-493.18470175 176.92131907 -493.19525826 168.37468363 -493.2110464 159.82800108 C-493.22411838 152.49032038 -493.22948679 145.15266031 -493.22884732 137.81496805 C-493.22859227 133.43240449 -493.23144776 129.04989701 -493.24202538 124.66734505 C-493.25170079 120.54612571 -493.25178938 116.42501614 -493.24450874 112.30379295 C-493.24346226 110.79169683 -493.24582958 109.27959389 -493.2518692 107.76750946 C-493.25958314 105.70242607 -493.25494858 103.63772228 -493.24723816 101.57264709 C-493.24778293 100.417305 -493.24832769 99.26196291 -493.24888897 98.07161045 C-492.99903861 94.98813516 -492.31167505 92.78337382 -491 90 C-490.34 90 -489.68 90 -489 90 C-488.67 89.01 -488.34 88.02 -488 87 C-481.39195677 82.91377348 -474.57185924 81.59819026 -467.0078125 80.16015625 C-465.7490329 79.91132187 -464.4902533 79.66248749 -463.19332886 79.40611267 C-459.84832785 78.74509949 -456.50076958 78.09808398 -453.15246582 77.45404053 C-449.84084628 76.81450656 -446.53189006 76.16151002 -443.22265625 75.50976562 C-433.04780397 73.51029121 -422.8675642 71.53969332 -412.67871094 69.61279297 C-411.51806122 69.39239853 -410.3574115 69.17200409 -409.16159058 68.94493103 C-407.01353079 68.53774307 -404.86491666 68.13346194 -402.71560669 67.73292542 C-397.95159578 66.82977822 -393.24961237 65.83146548 -388.55812073 64.60375977 C-381.52617259 62.83260206 -374.43305893 61.48422464 -367.30493164 60.16625977 C-365.85711441 59.89572524 -364.40935825 59.62486366 -362.96165752 59.35370636 C-359.02397068 58.61710232 -355.08545977 57.88499442 -351.14679432 57.15364385 C-346.90621136 56.36536794 -342.66643808 55.57275983 -338.42657471 54.78062439 C-331.12208616 53.4164713 -323.81713662 52.05481134 -316.51187134 50.69482422 C-304.99501562 48.55068533 -293.47922245 46.4008746 -281.96362305 44.25 C-278.05189803 43.51942424 -274.14016876 42.78887126 -270.22843933 42.05831909 C-269.25526404 41.87656376 -268.28208875 41.69480842 -267.2794233 41.50754535 C-260.32780231 40.2092754 -253.37606277 38.91164152 -246.42427063 37.61428833 C-211.86009741 31.16365936 -177.29899738 24.69673759 -142.74186611 18.2084856 C-134.81012078 16.71928194 -126.87823032 15.23086595 -118.9458313 13.74514771 C-110.82601853 12.22429967 -102.70670385 10.70081399 -94.58772922 9.17549825 C-92.50865454 8.78507583 -90.4294863 8.39515508 -88.35029793 8.00533867 C-75.36158019 5.56913532 -62.37983144 3.11065721 -49.43505859 0.44921875 C-48.48722472 0.25514183 -47.53939085 0.06106491 -46.56283474 -0.13889313 C-42.33648561 -1.00616851 -38.1135151 -1.88550938 -33.89558411 -2.79284668 C-21.91435295 -5.32097927 -10.56211565 -7.55402511 0 0 Z M-33.66894531 20.7890625 C-34.8038591 21.00346481 -35.93877289 21.21786713 -37.108078 21.43876648 C-40.85159253 22.15044258 -44.58962239 22.88748672 -48.328125 23.625 C-50.9583628 24.13065806 -53.58882982 24.6349328 -56.21966553 25.13745117 C-61.74299507 26.19532692 -67.26369295 27.26607633 -72.78271484 28.34619141 C-80.45835401 29.8483683 -88.1381144 31.328472 -95.81902552 32.80342102 C-111.55429717 35.82688966 -127.28439302 38.87572949 -143 42 C-144.34757259 42.26618176 -145.69516321 42.53227222 -147.04277039 42.79827881 C-150.43996062 43.46984774 -153.83529271 44.15020604 -157.22952986 44.83653831 C-159.14816488 45.22274741 -161.068276 45.60160019 -162.98840714 45.9803009 C-164.14060619 46.21520737 -165.29280525 46.45011383 -166.47991943 46.69213867 C-167.49990902 46.89683273 -168.51989861 47.10152679 -169.57079697 47.31242371 C-172.15605381 47.83085421 -172.15605381 47.83085421 -174 50 C-174 50.99 -174 51.98 -174 53 C-169.52161619 54.26959162 -165.65149009 53.68633476 -161.16015625 52.8828125 C-160.38142654 52.75036133 -159.60269684 52.61791016 -158.80036926 52.48144531 C-156.21930634 52.03894751 -153.6409532 51.58244176 -151.0625 51.125 C-149.25475761 50.81081897 -147.44697694 50.49685813 -145.63916016 50.18310547 C-129.34712022 47.33069346 -113.11470952 44.16872367 -96.89477539 40.93408203 C-95.95091476 40.74620117 -95.00705414 40.55832031 -94.03459167 40.36474609 C-92.27575214 40.01397505 -90.51726863 39.66141172 -88.75923157 39.30664062 C-73.00499656 36.15894855 -60.59624613 35.41128801 -46.875 44.5 C-45.97358276 45.10509399 -45.97358276 45.10509399 -45.05395508 45.72241211 C-37.95752516 50.46150984 -31.0455646 53.07629009 -22.4921875 53.17578125 C-20.88730469 53.21155273 -20.88730469 53.21155273 -19.25 53.24804688 C-17.02362416 53.29056447 -14.79700679 53.32205668 -12.5703125 53.34179688 C0.50869991 53.67815904 8.47288568 58.24696372 18 67 C18.680625 67.61359375 19.36125 68.2271875 20.0625 68.859375 C22.31749903 71.13525365 23.80243319 72.83031468 24.34375 76.03515625 C24.16221745 80.08181936 23.27485444 81.71173803 20.4375 84.6875 C17.33642468 86.91757111 14.04077326 88.87955343 10.734375 90.7890625 C8.70284424 92.0506748 8.70284424 92.0506748 7 95 C6.90687245 97.23392983 6.90687245 97.23392983 7.2421875 99.66796875 C7.33886719 100.56064453 7.43554688 101.45332031 7.53515625 102.37304688 C7.70337891 103.76620117 7.70337891 103.76620117 7.875 105.1875 C7.97941406 106.12787109 8.08382812 107.06824219 8.19140625 108.03710938 C8.45075129 110.3594263 8.72065204 112.68001837 9 115 C8.34 115 7.68 115 7 115 C6.608125 115.433125 6.21625 115.86625 5.8125 116.3125 C0.29197452 121.45229958 -7.98125581 122.17352115 -15.09765625 123.48828125 C-16.27339203 123.71224075 -17.44912781 123.93620026 -18.66049194 124.16694641 C-22.45985216 124.88924498 -26.26115032 125.60075412 -30.0625 126.3125 C-32.65846469 126.80487779 -35.25424937 127.29820557 -37.84985352 127.79248047 C-42.93489266 128.76059034 -48.02045217 129.72588021 -53.10644531 130.68896484 C-61.55852551 132.29268324 -70.00105071 133.94116748 -78.4375 135.625 C-80.22522827 135.97751831 -80.22522827 135.97751831 -82.04907227 136.3371582 C-83.10408936 136.54816162 -84.15910645 136.75916504 -85.24609375 136.9765625 C-86.12966553 137.15268066 -87.0132373 137.32879883 -87.92358398 137.51025391 C-90.04469818 137.9265393 -90.04469818 137.9265393 -92 139 C-92 139.99 -92 140.98 -92 142 C-89.08504599 143.45747701 -86.49538627 143.13184681 -83.25 143.125 C-82.03828125 143.12757813 -80.8265625 143.13015625 -79.578125 143.1328125 C-76.28117732 143.01043671 -73.24265999 142.56965649 -70 142 C-63.74331367 141.543051 -58.31585258 141.24000671 -53 145 C-50.4002237 147.81642433 -48.65832922 150.57424096 -47 154 C-45.700625 152.7934375 -45.700625 152.7934375 -44.375 151.5625 C-18.7446619 129.79215257 14.61487253 126.88015907 46.72038269 122.81077576 C52.72373602 122.04663511 58.7099344 121.19636838 64.6875 120.25 C65.80801758 120.07658081 65.80801758 120.07658081 66.95117188 119.8996582 C70.58750928 119.32351239 70.58750928 119.32351239 74 118 C74.42553995 115.72496627 74.42553995 115.72496627 74 113 C71.83276466 110.26239576 71.83276466 110.26239576 68.9375 107.6875 C64.99131778 103.97949613 61.3644743 100.19131855 57.82788086 96.09057617 C54.75296175 92.57374268 51.52758255 89.20077505 48.3125 85.8125 C43.51264944 80.73446123 38.72722405 75.64575054 34 70.5 C27.42584367 63.35095587 20.7596563 56.28938831 14.09521484 49.22460938 C11.26904791 46.22390638 8.45174907 43.21493546 5.6340332 40.20629883 C3.61637283 38.05737757 1.59055322 35.91645402 -0.4375 33.77734375 C-2.55294376 31.54603842 -4.64090351 29.29840704 -6.6875 27.00390625 C-7.43 26.19824219 -8.1725 25.39257812 -8.9375 24.5625 C-9.52402344 23.90378906 -10.11054687 23.24507812 -10.71484375 22.56640625 C-17.83280666 17.68725561 -25.70137766 19.17946326 -33.66894531 20.7890625 Z M-231.1875 58.3125 C-232.93063477 58.63250977 -232.93063477 58.63250977 -234.70898438 58.95898438 C-235.82982422 59.17490234 -236.95066406 59.39082031 -238.10546875 59.61328125 C-239.62370239 59.90392456 -239.62370239 59.90392456 -241.17260742 60.20043945 C-244.22359898 61.06323173 -246.44055539 62.13260506 -249 64 C-250.36084054 66.92296839 -250.36084054 66.92296839 -248.91015625 69.26953125 C-246.5943085 72.57991484 -244.08088412 75.63547476 -241.4375 78.6875 C-240.90809814 79.30254395 -240.37869629 79.91758789 -239.83325195 80.55126953 C-235.89631006 85.07842842 -231.77902618 89.36742688 -227.44921875 93.5234375 C-224.7888445 96.2135129 -222.33071966 99.03218299 -219.85375977 101.89013672 C-216.86066058 105.29674322 -213.74111721 108.58125725 -210.625 111.875 C-205.80481543 116.9917751 -201.0407171 122.14611392 -196.359375 127.390625 C-193.33811715 130.73201614 -190.26429242 134.02230042 -187.1875 137.3125 C-186.29309204 138.2720459 -186.29309204 138.2720459 -185.38061523 139.25097656 C-182.48741129 142.35259755 -179.5827638 145.44097054 -176.64453125 148.5 C-163.82436282 161.93102556 -158.45282804 173.77437633 -158.69116211 192.5546875 C-158.69532387 194.34256683 -158.69532387 194.34256683 -158.6995697 196.16656494 C-158.70966335 199.39814357 -158.73293747 202.62930063 -158.76168132 205.86075592 C-158.7881626 209.26634223 -158.79555125 212.67196723 -158.80458069 216.07763672 C-158.82857914 223.98598208 -158.87524163 231.89411397 -158.92417145 239.80233765 C-158.98521726 249.86780282 -159.03486038 259.93329322 -159.06616598 269.99889565 C-159.07727739 273.37725228 -159.09305103 276.75545601 -159.11976433 280.13372803 C-159.14858644 283.90426805 -159.16512282 287.67469352 -159.17944336 291.4453125 C-159.19729889 293.09155609 -159.19729889 293.09155609 -159.21551514 294.77105713 C-159.22629325 301.8550491 -159.07715416 309.17634627 -157 316 C-151.25295982 319.83136012 -143.38517106 317.134011 -136.88671875 315.9140625 C-134.81897705 315.49084815 -132.75255916 315.06111557 -130.6875 314.625 C-129.64271484 314.41617188 -128.59792969 314.20734375 -127.52148438 313.9921875 C-118.34868944 312.37219595 -118.34868944 312.37219595 -111.37108612 306.75219822 C-109.83416175 303.66711083 -109.6185965 301.74408493 -109.60559082 298.31639099 C-109.58856613 296.61560646 -109.58856613 296.61560646 -109.57119751 294.88046265 C-109.57412811 293.64559113 -109.57705872 292.4107196 -109.58007812 291.13842773 C-109.57160858 289.83048752 -109.56313904 288.5225473 -109.55441284 287.17497253 C-109.53221395 283.5918756 -109.52926571 280.00900879 -109.53116035 276.42585254 C-109.53128025 273.42692094 -109.52270733 270.42803774 -109.51438284 267.42911965 C-109.49515062 260.34488471 -109.49226256 253.26076757 -109.49902344 246.17651367 C-109.50564803 238.89250284 -109.48286383 231.6090005 -109.44570971 224.32509273 C-109.41489781 218.05476308 -109.40366553 211.7845959 -109.40754652 205.51419216 C-109.40960407 201.77683236 -109.40429214 198.03986737 -109.37965393 194.30257988 C-109.35720125 190.78025655 -109.35941533 187.25875044 -109.37958145 183.73642159 C-109.38455589 181.84699734 -109.36510192 179.95755658 -109.34457397 178.0682373 C-109.44514045 167.71806739 -112.05740785 158.30793613 -119.35083008 150.6784668 C-119.85380615 150.18644775 -120.35678223 149.69442871 -120.875 149.1875 C-121.66716919 148.37116089 -121.66716919 148.37116089 -122.4753418 147.53833008 C-123.96718531 146.00802873 -125.47851929 144.50075498 -127 143 C-127.68964844 142.3090625 -128.37929688 141.618125 -129.08984375 140.90625 C-130.19984098 139.79876977 -131.31411667 138.69555304 -132.43359375 137.59765625 C-134.16144192 135.83533729 -135.76679173 133.99696908 -137.375 132.125 C-139.96634205 129.1153247 -142.67254783 126.28911384 -145.5 123.5 C-148.78103368 120.25743741 -151.85459996 116.92952978 -154.85546875 113.4296875 C-157.83448095 110.05455892 -160.91942437 106.78231102 -164 103.5 C-168.13636403 99.08930994 -172.22635578 94.66130389 -176.171875 90.078125 C-179.19917226 86.63683837 -182.3298524 83.29088851 -185.4465332 79.93066406 C-188.60253288 76.52481648 -191.72195164 73.09064055 -194.8125 69.625 C-202.5513269 60.01474813 -202.5513269 60.01474813 -213.42578125 55.73046875 C-219.43595548 55.890573 -225.30392935 57.16215481 -231.1875 58.3125 Z M-97.125 63.8125 C-98.39214844 64.07353516 -99.65929687 64.33457031 -100.96484375 64.60351562 C-107.75815429 66.0202462 -114.48954296 67.60396356 -121.21289062 69.3190918 C-126.32966803 70.56915243 -131.5071443 71.50542303 -136.68554688 72.4609375 C-142.30507848 73.53974609 -147.61772457 75.05781672 -153 77 C-151.71012468 85.47632351 -145.4543486 90.63856901 -139.53125 96.40234375 C-137.23028259 98.76367604 -135.20191897 101.18136985 -133.15869141 103.7590332 C-127.6486397 110.62911037 -122.30467632 116.79654327 -113.2578125 118.5234375 C-105.66166533 118.9377728 -98.51754067 117.13805637 -91.2019043 115.34472656 C-79.6489714 112.5542826 -67.95127689 110.52416744 -56.25457764 108.4362793 C-36.14440363 106.3808467 -36.14440363 106.3808467 -19.625 97.4375 C-17.17901367 92.15931898 -15.87084516 85.33561556 -17.765625 79.73828125 C-19.63370439 77.10759984 -22.06855284 77.05267625 -25.1015625 76.48828125 C-26.05804687 76.32714844 -27.01453125 76.16601562 -28 76 C-44.4039568 73.10208472 -44.4039568 73.10208472 -51 69 C-66.58050968 59.3490155 -79.40078068 59.97557842 -97.125 63.8125 Z M-307.98730469 73.61450195 C-309.48776318 73.89601972 -310.98835195 74.17684392 -312.48905945 74.45703125 C-316.54187386 75.21599903 -320.59265485 75.98532833 -324.64303875 76.75714898 C-328.02987367 77.40152268 -331.41767506 78.04073051 -334.80548692 78.67994469 C-342.79605566 80.18767539 -350.78500511 81.70377168 -358.77294922 83.2253418 C-367.00808779 84.79386594 -375.24564662 86.34915563 -383.48453784 87.89783698 C-390.56891726 89.22992791 -397.6518115 90.56971025 -404.7335484 91.91577882 C-408.95872826 92.71883529 -413.18438927 93.51908361 -417.41146088 94.31212807 C-421.38259627 95.05754386 -425.35178361 95.81257814 -429.31968117 96.5750351 C-430.77468456 96.85297776 -432.23033523 97.12755662 -433.68665886 97.39849663 C-435.676444 97.76924732 -437.66370971 98.1534439 -439.65081787 98.5382843 C-441.31878229 98.85492019 -441.31878229 98.85492019 -443.02044296 99.17795277 C-446.09928127 100.02739128 -448.35702672 101.22981767 -451 103 C-450.62462801 108.6792392 -449.57666176 111.12300042 -445.375 114.9375 C-442.23828822 117.88289461 -439.21840803 120.77775687 -436.4375 124.0625 C-433.20930142 127.8375934 -429.72200736 131.29450626 -426.1875 134.78125 C-423.59803119 137.40771122 -421.21163036 140.16976458 -418.8125 142.96875 C-416.07345159 146.03837322 -413.1231636 148.88528608 -410.1953125 151.7734375 C-407.55993257 154.44633174 -405.12233511 157.25368303 -402.6796875 160.1015625 C-400.4771278 162.59096719 -398.11647364 164.8945103 -395.74609375 167.22265625 C-393.93522357 169.06593574 -392.24678646 170.97822799 -390.5625 172.9375 C-387.52666049 176.4623338 -384.30051084 179.72464411 -380.98046875 182.98046875 C-378.40697985 185.6047168 -376.06362059 188.39363535 -373.73828125 191.23828125 C-370.99123825 194.02236304 -368.39668434 195.75662172 -364.51171875 196.43359375 C-347.88429685 196.45659157 -331.21082607 192.38064966 -315 189 C-313.29191902 188.66537595 -311.58360716 188.33192687 -309.875 188 C-306.33670063 187.29449886 -302.83089071 186.49251669 -299.32128906 185.65649414 C-290.9179718 183.71079665 -282.45662819 182.10729358 -273.984375 180.49609375 C-272.27568816 180.16912146 -270.56705057 179.84189175 -268.85845947 179.51441956 C-264.39740681 178.65992919 -259.9358464 177.80812369 -255.47412109 176.95715332 C-248.32152158 175.59272349 -241.16952665 174.22514074 -234.01789093 172.85566902 C-231.53834612 172.38141659 -229.05846904 171.90893311 -226.57855225 171.43663025 C-222.3833356 170.63623161 -218.19104418 169.82197558 -214 169 C-213.01269897 168.80906769 -212.02539795 168.61813538 -211.00817871 168.42141724 C-206.50144241 167.49950285 -203.87285893 166.7472073 -201 163 C-203.66954397 160.64800947 -203.66954397 160.64800947 -207.03663635 159.82731628 C-208.15074135 159.98083305 -208.15074135 159.98083305 -209.28735352 160.13745117 C-210.17053253 160.25696136 -211.05371155 160.37647156 -211.96365356 160.49960327 C-218.12707416 161.51534886 -224.26699417 162.6299646 -230.40234375 163.80078125 C-231.88947176 164.08154906 -233.37666078 164.36199392 -234.86390686 164.64213562 C-237.97333554 165.22875575 -241.08220922 165.81820507 -244.19067383 166.40991211 C-248.11634552 167.15710165 -252.04301772 167.89885837 -255.97007656 168.63871861 C-276.71240489 172.51579437 -276.71240489 172.51579437 -297.36558533 176.83589172 C-308.31181462 179.23715689 -319.18652546 180.73543912 -329.19140625 174.671875 C-330.66526884 173.66996483 -332.12870605 172.6525688 -333.58203125 171.62109375 C-344.26735329 164.45726718 -354.1767705 161.84289479 -366.8125 161.625 C-378.74960703 161.19965707 -386.66055862 158.87079049 -396.5 152.125 C-397.10070312 151.71451416 -397.70140625 151.30402832 -398.3203125 150.88110352 C-402.1928714 148.05570488 -404.31212152 145.48493424 -406 141 C-406 136.89181612 -405.83103151 134.85621428 -402.9375 131.875 C-401.31096613 130.83678689 -399.67309482 129.81392531 -397.99609375 128.859375 C-393.44036926 126.20816148 -390.4440105 124.36346756 -389 119 C-389.30139233 116.67800559 -389.82893132 114.50062257 -390.4296875 112.23828125 C-391.25870923 108.98465486 -391.44828648 106.33012816 -391 103 C-387.38827002 98.53219707 -384.38149016 97.14623123 -378.83618164 95.91040039 C-378.13923974 95.75137521 -377.44229784 95.59235003 -376.72423649 95.4285059 C-374.48730701 94.92775215 -372.24584431 94.45901508 -370 94 C-369.27456371 93.85047253 -368.54912743 93.70094505 -367.80170822 93.54688644 C-363.23502999 92.61656992 -358.65882253 91.74307421 -354.07699394 90.89083672 C-351.54824986 90.42003157 -349.02084416 89.94253842 -346.4936676 89.46339417 C-339.32228805 88.10483583 -332.14883492 86.75742027 -324.97436523 85.4152832 C-320.55204759 84.58752459 -316.13127023 83.75191539 -311.71132088 82.91160774 C-310.04024669 82.59559387 -308.36859314 82.28262683 -306.69634819 81.97286797 C-304.36309124 81.54059533 -302.03191303 81.09838858 -299.70092773 80.65405273 C-299.02187378 80.53086166 -298.34281982 80.40767059 -297.64318848 80.28074646 C-293.05827258 79.39233079 -289.16707433 78.05548339 -285 76 C-283.5181036 73.9648239 -283.5181036 73.9648239 -283 72 C-284.19288635 70.58652465 -284.19288635 70.58652465 -287.62579346 70.77409363 C-294.52921237 70.86100283 -301.22940546 72.31864221 -307.98730469 73.61450195 Z M-282.015625 99.703125 C-283.47688803 99.98574301 -284.93829678 100.26760849 -286.39984131 100.54876709 C-290.24006273 101.2895469 -294.07828134 102.04022828 -297.9161377 102.79315186 C-302.50488064 103.69138767 -307.09599617 104.57740239 -311.68671417 105.46547699 C-315.38867727 106.18216448 -319.08998706 106.9019113 -322.78991699 107.62902832 C-329.065783 108.8609705 -335.34133335 110.07659163 -341.64257812 111.17382812 C-342.61467224 111.34622009 -343.58676636 111.51861206 -344.58831787 111.69622803 C-346.31528922 111.99949972 -348.04423242 112.29188578 -349.77545166 112.56988525 C-354.66956608 113.43747527 -358.02986509 114.82244061 -362 118 C-364.08592788 121.71594937 -364.5326117 125.62346846 -365.125 129.8125 C-365.29257812 130.97394531 -365.46015625 132.13539063 -365.6328125 133.33203125 C-365.75398437 134.21246094 -365.87515625 135.09289063 -366 136 C-361.69807211 137.51364129 -357.41439485 138.91484422 -352.9921875 140.03125 C-344.09182873 142.30443774 -335.95811057 145.07766422 -327.74609375 149.2331543 C-310.60949454 157.87977087 -292.76335741 153.96408764 -274.90673828 149.66699219 C-270.15403226 148.57641661 -265.36353261 147.72246228 -260.5625 146.875 C-259.65298584 146.71161133 -258.74347168 146.54822266 -257.80639648 146.37988281 C-253.66883676 145.6391413 -249.52871139 144.91904453 -245.3828125 144.2265625 C-234.66879123 142.59999329 -234.66879123 142.59999329 -225 138 C-223.80098144 134.40294431 -224.19022383 133.80876069 -225.77734375 130.48828125 C-229.21706542 123.94508704 -234.25187117 119.23641406 -239.5625 114.1875 C-241.44085246 112.37060693 -243.31722768 110.55166701 -245.19140625 108.73046875 C-246.01842041 107.94051514 -246.84543457 107.15056152 -247.69750977 106.33666992 C-250 104 -250 104 -252.05053711 101.3293457 C-254.04108792 98.95090547 -255.18912499 98.15919538 -258 97 C-266.21031545 96.36681913 -273.99033998 98.11585153 -282.015625 99.703125 Z M-17.94921875 160.48046875 C-19.6117308 162.88462187 -19.18840185 165.1739723 -19 168 C-12.96824072 171.9124925 -6.86445392 173.70167089 0.0625 175.5 C1.20920166 175.80188232 2.35590332 176.10376465 3.53735352 176.41479492 C34.61613865 184.41482772 65.8430119 186.22275938 97.8125 186.1875 C98.83403168 186.18689575 99.85556335 186.1862915 100.90805054 186.18566895 C132.53120633 186.13519451 163.27637741 183.99330767 194.125 176.5625 C195.29313232 176.28639893 196.46126465 176.01029785 197.66479492 175.72583008 C203.90511447 174.14490051 210.161018 172.48160531 215 168 C216.12944997 164.83538907 216.12944997 164.83538907 216 162 C172.35439106 130.0882608 26.85580542 126.45019989 -17.94921875 160.48046875 Z M-55.5 160.25 C-61.85812328 162.77193717 -68.17720956 164.28228374 -74.90625 165.47949219 C-79.40913238 166.35197511 -82.13530766 167.14396374 -85 171 C-87.31973186 177.95919557 -86.94230738 187.87820627 -85 195 C-82.22476471 196.80625612 -80.0864395 197.23805395 -76.8125 197.16015625 C-76.03132813 197.14919922 -75.25015625 197.13824219 -74.4453125 197.12695312 C-73.63835937 197.10568359 -72.83140625 197.08441406 -72 197.0625 C-70.39592677 197.02790737 -68.79174907 196.99780537 -67.1875 196.97265625 C-66.47980469 196.95468994 -65.77210938 196.93672363 -65.04296875 196.91821289 C-62.84948593 197.0060256 -61.0643448 197.24279611 -59 198 C-57.13466985 202.01045983 -56.45165356 205.6132285 -57 210 C-58.46590287 213.39822938 -59.67819638 215.4211079 -63.140625 216.9375 C-65.74451133 217.72357889 -68.35121462 218.38232902 -71 219 C-72.77562378 219.43940907 -74.54679696 219.89728363 -76.3125 220.375 C-77.48232422 220.66503906 -77.48232422 220.66503906 -78.67578125 220.9609375 C-82.07101326 222.47880593 -83.7582751 224.00842984 -86 227 C-86.69432809 230.18895766 -86.65461178 233.24870302 -86.5625 236.5 C-86.57345703 237.34175781 -86.58441406 238.18351562 -86.59570312 239.05078125 C-86.54922749 242.98571875 -86.22157828 245.55348619 -84.453125 249.1171875 C-81.5612823 251.33672282 -79.86983069 251.33120426 -76.30273438 250.9375 C-75.60470703 250.834375 -74.90667969 250.73125 -74.1875 250.625 C-68.10465739 249.77968478 -64.49145728 250.05914344 -59 253 C-56.30773834 256.27753594 -56.70772436 259.90814101 -57 264 C-57.9260078 266.59863968 -58.52201365 267.72077065 -60.92578125 269.125 C-61.71339844 269.41375 -62.50101563 269.7025 -63.3125 270 C-64.19808594 270.33128906 -65.08367187 270.66257812 -65.99609375 271.00390625 C-70.32051506 272.43788211 -74.70728633 273.63501995 -79.1171875 274.77734375 C-82.78552137 276.33315473 -84.06806385 277.49951569 -86 281 C-86.51085885 284.22696196 -86.46882886 287.36568155 -86.375 290.625 C-86.37371094 291.48351563 -86.37242187 292.34203125 -86.37109375 293.2265625 C-86.35840025 298.41337955 -86.35840025 298.41337955 -84 303 C-81.96497554 303.40251804 -81.96497554 303.40251804 -79.6875 303.25 C-78.54861328 303.22679688 -78.54861328 303.22679688 -77.38671875 303.203125 C-74.54469631 303.00622836 -74.54469631 303.00622836 -70 302 C-62.74 301.67 -55.48 301.34 -48 301 C-48 253.81 -48 206.62 -48 158 C-50.83714024 158 -52.8819326 159.1525273 -55.5 160.25 Z M-467 131 C-468.63012838 132.63012838 -468.20976456 134.44437445 -468.25 136.6875 C-468.27578125 137.53699219 -468.3015625 138.38648438 -468.328125 139.26171875 C-467.66061911 144.83221434 -464.65465917 148.72926158 -460.9375 152.75 C-460.14472656 153.60851563 -459.35195313 154.46703125 -458.53515625 155.3515625 C-455.19672717 158.83916637 -451.77459684 162.23649218 -448.33984375 165.62890625 C-445.68569509 168.31850264 -443.23179718 171.13363953 -440.77734375 174.00390625 C-438.76731223 176.26132626 -436.65167047 178.37735713 -434.5 180.5 C-431.73439592 183.22829407 -429.08712969 185.98516834 -426.5625 188.9375 C-423.84380752 192.1103592 -420.97248325 195.06338382 -418 198 C-415.06881809 200.89591958 -412.23596826 203.80242571 -409.5625 206.9375 C-405.89322698 211.23133013 -401.88113108 215.15136612 -397.84375 219.09375 C-395.6999073 221.23305227 -393.70406166 223.46414175 -391.7265625 225.7578125 C-387.62968883 230.48497443 -383.28239699 234.93836655 -378.875 239.375 C-378.08996094 240.18066406 -377.30492187 240.98632812 -376.49609375 241.81640625 C-375.73167969 242.58597656 -374.96726562 243.35554688 -374.1796875 244.1484375 C-373.49632324 244.84114746 -372.81295898 245.53385742 -372.10888672 246.24755859 C-366.8627638 250.60697864 -361.54131165 250.52203477 -355 250 C-349.888106 249.25735951 -344.83634895 248.26035483 -339.7734375 247.24609375 C-338.2569588 246.94977788 -336.74030084 246.65437813 -335.22348022 246.3598175 C-331.97195933 245.726718 -328.72159367 245.08809619 -325.4720459 244.44494629 C-317.65208847 242.89743005 -309.82699358 241.37621612 -302.00231934 239.85276413 C-299.266859 239.31989348 -296.53162334 238.78587924 -293.79638672 238.25186157 C-280.67544257 235.69390751 -267.54139083 233.21169881 -254.3984375 230.76953125 C-253.48278896 230.59918806 -252.56714043 230.42884487 -251.62374496 230.25333977 C-242.72219026 228.59736424 -233.81974073 226.94638765 -224.91516304 225.30674267 C-221.6265792 224.70001749 -218.33882608 224.08887818 -215.05125809 223.47667503 C-213.53401611 223.19521471 -212.01640574 222.91573132 -210.49839401 222.63845253 C-195.14825947 220.91369228 -195.14825947 220.91369228 -183 213 C-181.77091482 209.39579074 -181.83267999 205.84422954 -181.8125 202.0625 C-181.79832031 200.85722656 -181.78414062 199.65195313 -181.76953125 198.41015625 C-182.00495526 194.926679 -182.42817001 191.57182999 -185 189 C-198.37706728 188.75230006 -211.85774735 192.17208182 -224.921875 194.62890625 C-227.46913873 195.10220315 -230.01652501 195.57484088 -232.56402588 196.04685974 C-237.90732136 197.03845065 -243.24971907 198.034664 -248.59130859 199.03540039 C-255.9642716 200.41670929 -263.33897444 201.78852392 -270.71412754 203.15808415 C-276.5962049 204.2507602 -282.47776554 205.34621506 -288.359375 206.44140625 C-289.63956009 206.67964741 -290.91974518 206.91788857 -292.23872375 207.16334915 C-305.08203913 209.55532204 -317.91966571 211.96824335 -330.73632812 214.49951172 C-332.67984061 214.88060037 -334.62338216 215.2615409 -336.56695557 215.64231873 C-340.06152002 216.32717497 -343.55248341 217.02727868 -347.04193115 217.73768616 C-370.63915621 222.43809776 -370.63915621 222.43809776 -379.23388672 217.31054688 C-382.47947898 214.90215051 -385.28184677 212.17443296 -388.0625 209.25 C-388.67391846 208.62311279 -389.28533691 207.99622559 -389.9152832 207.3503418 C-393.48215325 203.6690726 -396.91991747 199.90227479 -400.23046875 195.98828125 C-402.99930556 192.87715998 -405.99043111 189.98928921 -408.95385742 187.06567383 C-412.18031519 183.86582145 -415.17945514 180.5491007 -418.125 177.09375 C-420.483453 174.46014415 -422.98445956 171.98174077 -425.5 169.5 C-428.57404135 166.46715183 -431.57999199 163.42060646 -434.375 160.125 C-438.08327417 155.77180858 -442.15790505 151.80963486 -446.22631836 147.79760742 C-449.27179428 144.77950856 -452.17846642 141.7249899 -454.9375 138.4375 C-457.68182401 135.2164944 -460.27643119 133.03103753 -464 131 C-464.99 131 -465.98 131 -467 131 Z M-22 196 C-24.98502866 200.47754298 -24.47374806 204.75117226 -24 210 C-22.31588847 215.14589636 -19.65380132 217.50917579 -15 220 C29.29318785 238.41233747 84.76884832 239.57498795 131.97290039 235.45581055 C135.0624616 235.18750333 138.153059 234.9356597 141.24414062 234.68554688 C158.42485728 233.25492509 175.23519472 231.06596875 191.9375 226.6875 C193.03900391 226.41744141 194.14050781 226.14738281 195.27539062 225.86914062 C209.01900594 222.40811702 209.01900594 222.40811702 219.75 213.8125 C221.78490896 209.21853887 221.67134562 203.90238429 221 199 C220.01 197.515 220.01 197.515 219 196 C213.13053699 195.47333467 208.39444142 196.50828397 202.8125 198.1875 C194.67767844 200.45718946 186.50362233 202.16057903 178.1875 203.625 C177.13087158 203.81860107 176.07424316 204.01220215 174.9855957 204.21166992 C150.68932476 208.36195383 126.41805799 209.52153993 101.8125 209.375 C100.43007535 209.3705489 99.04764927 209.3665255 97.66522217 209.36291504 C76.66230375 209.29888513 55.8459234 208.72611727 35 206 C33.86224121 205.85546387 32.72448242 205.71092773 31.55224609 205.56201172 C18.79110218 203.88394081 6.37304168 201.3490903 -6.0378418 197.93041992 C-11.51738155 196.45114892 -16.31638354 195.40647819 -22 196 Z M-466.5625 185.0625 C-468.78915616 188.06364526 -468.93901534 190.27993545 -469 194 C-466.83904332 200.44874517 -462.54498295 205.10196828 -457.875 209.875 C-457.20919922 210.57044922 -456.54339844 211.26589844 -455.85742188 211.98242188 C-451.3457864 216.67713821 -446.74747036 221.28195642 -442.11328125 225.85546875 C-440.21441884 227.78241046 -438.43989166 229.75312002 -436.6875 231.8125 C-433.477611 235.57134863 -430.01210165 239.02742679 -426.5 242.5 C-422.44534466 246.50912299 -418.56021844 250.55864508 -414.87109375 254.91015625 C-411.86056104 258.27265103 -408.61874836 261.40111968 -405.40869141 264.57177734 C-402.00881086 267.94600648 -398.8122153 271.42506085 -395.70703125 275.07421875 C-393.01077007 278.11599624 -390.08651215 280.92241951 -387.19140625 283.7734375 C-385.17322719 285.82399377 -383.29686983 287.93102831 -381.4375 290.125 C-376.1577002 296.25005777 -370.63905772 302.42432992 -362.20162964 303.28567505 C-353.51997463 303.28558862 -345.32412573 302.0827874 -336.8203125 300.4296875 C-335.35103611 300.15305111 -333.88157313 299.87740419 -332.41194153 299.60266113 C-328.46646667 298.86179496 -324.52399906 298.10597165 -320.58201218 297.34679413 C-317.27773505 296.71230865 -313.97183975 296.08649408 -310.66591549 295.46065712 C-299.43858738 293.33476583 -288.21816738 291.17365837 -277 289 C-276.15252449 288.83582581 -275.30504898 288.67165161 -274.4318924 288.50250244 C-262.2636413 286.1442355 -250.09901475 283.76775647 -237.9375 281.375 C-237.18844643 281.22771202 -236.43939285 281.08042404 -235.66764069 280.92867279 C-226.88542085 279.20107242 -218.10710074 277.45617906 -209.33563232 275.67468262 C-207.21575344 275.24590471 -205.09495351 274.82163677 -202.97296143 274.40344238 C-200.41783189 273.89946829 -197.86683301 273.37872786 -195.31640625 272.8515625 C-194.62159653 272.71865814 -193.9267868 272.58575378 -193.21092224 272.44882202 C-188.90487166 271.52954312 -186.18035762 270.03900015 -183 267 C-181.57288711 263.70719807 -181.83302522 260.11336307 -181.8125 256.5625 C-181.79832031 255.45003906 -181.78414062 254.33757813 -181.76953125 253.19140625 C-182.08105796 248.87755338 -182.92719628 246.07280372 -186 243 C-194.57863451 241.99004239 -203.04882396 243.64640427 -211.43408203 245.30737305 C-213.36379349 245.6757151 -213.36379349 245.6757151 -215.33248901 246.05149841 C-218.83124508 246.71960079 -222.32723476 247.40124663 -225.8228631 248.08549857 C-229.51934662 248.80657516 -233.21828535 249.51483745 -236.91696167 250.2245636 C-243.93510411 251.57322684 -250.95101412 252.93315079 -257.96617305 254.29723817 C-265.85146829 255.82997609 -273.73912653 257.35036642 -281.62703919 258.86956728 C-292.66442785 260.99553711 -303.70104484 263.12542768 -314.73547173 265.26672077 C-317.38433011 265.78059437 -320.03358491 266.29234273 -322.68321419 266.80222607 C-328.89727786 268.00019417 -335.10495207 269.22024881 -341.3036499 270.49551392 C-342.46533125 270.73026586 -343.6270126 270.9650178 -344.82389641 271.20688343 C-346.96342738 271.63991787 -349.10111144 272.08225384 -351.23617744 272.5367918 C-360.01721313 274.29645206 -370.943473 276.33980087 -379.0390625 271.5234375 C-385.38500649 266.59332165 -390.62877279 260.48275074 -395.82421875 254.39453125 C-398.93044501 250.97600935 -402.21864214 247.74961558 -405.5 244.5 C-409.9520801 240.09098718 -414.2887048 235.67842439 -418.33203125 230.88671875 C-421.25504609 227.5803577 -424.45161624 224.54176676 -427.58984375 221.44140625 C-430.26854532 218.72797273 -432.74608118 215.89222977 -435.22265625 212.99609375 C-437.23268777 210.73867374 -439.34832953 208.62264287 -441.5 206.5 C-444.26560408 203.77170593 -446.91287031 201.01483166 -449.4375 198.0625 C-453.68028522 193.13250309 -458.14443917 188.33183489 -463 184 C-465.03927901 183.81256333 -465.03927901 183.81256333 -466.5625 185.0625 Z M-21 244 C-24.03451428 253.43468832 -24.03451428 253.43468832 -23 263 C-5.28946414 283.10385151 42.12724849 283.35969455 67 285 C85.15875774 286.05741996 103.21192031 286.28352093 121.375 285.25 C122.49819138 285.18664459 122.49819138 285.18664459 123.64407349 285.12200928 C149.82470961 283.60424123 176.69501518 281.14191846 201.75 273.0625 C202.46526855 272.83385254 203.18053711 272.60520508 203.91748047 272.36962891 C210.12971542 270.23724587 216.2834811 267.57477836 220 262 C220.6300298 256.09810318 220.37705775 250.49694604 218 245 C211.78758177 245.55046744 205.86106981 246.61619425 199.77539062 247.96801758 C186.75162394 250.85687663 173.72171215 253.05115885 160.5 254.8125 C159.72112427 254.91727661 158.94224854 255.02205322 158.13977051 255.13000488 C97.84790734 263.17890013 38.05171687 257.44836259 -21 244 Z M209.63671875 294.35546875 C173.66847241 303.85616688 137.4270914 308.23769974 100.25 308.1875 C99.40994415 308.18689575 98.56988831 308.1862915 97.70437622 308.18566895 C60.62964258 308.11404973 24.40743537 304.0128695 -11.55078125 294.84375 C-14.93084714 294.01691622 -17.5495962 293.51854831 -21 294 C-24.08170397 297.11105353 -24.43203449 299.57910859 -24.4375 303.875 C-24.26606436 309.10061235 -23.87428178 312.21796303 -20 316 C0.58652992 330.42855045 33.72355364 332.4570251 58 334 C58.85319824 334.05639648 59.70639648 334.11279297 60.58544922 334.17089844 C142.72059057 340.63336426 142.72059057 340.63336426 216.91796875 315.359375 C220.419341 311.31857565 221.17339189 308.34711969 221.25 303.125 C221.27578125 302.07570313 221.3015625 301.02640625 221.328125 299.9453125 C220.96227679 296.66138929 220.36177593 295.28452158 218 293 C214.90091498 293 212.62172959 293.5479356 209.63671875 294.35546875 Z M-468 239 C-468.546916 245.61160674 -468.57958024 250.60960764 -464.6171875 256.10546875 C-462.23155135 258.90023573 -459.6744309 261.47303654 -457.0234375 264.015625 C-455.14817641 265.85468414 -453.44664731 267.74712854 -451.75 269.75 C-448.66438454 273.34516664 -445.36803372 276.67338714 -442 280 C-438.0576419 283.89393361 -434.3001673 287.85162821 -430.70703125 292.07421875 C-428.00778615 295.11936253 -425.07938937 297.92842701 -422.18359375 300.78515625 C-420.22025329 302.77659461 -418.37920331 304.81302578 -416.5625 306.9375 C-413.05650315 311.02918541 -409.24538109 314.76966883 -405.4140625 318.5546875 C-402.71248706 321.29123479 -400.20921265 324.14979366 -397.7109375 327.0703125 C-395.25426881 329.84107582 -392.60640023 332.402929 -389.96875 335 C-388.06013545 336.93891002 -386.27289448 338.93699551 -384.5 341 C-374.98369978 352.30004383 -374.98369978 352.30004383 -361.51231384 357.29685974 C-349.93631896 357.55821892 -338.80378182 354.96594773 -327.50390625 352.72265625 C-325.18908271 352.27234006 -322.87404993 351.82309837 -320.55882263 351.37486267 C-314.45720681 350.19056852 -308.35853238 348.99175736 -302.26037598 347.78979492 C-296.2267134 346.60309959 -290.1904143 345.42999195 -284.15429688 344.25585938 C-274.68969034 342.41330007 -265.22719011 340.56030061 -255.76611328 338.69970703 C-246.70023233 336.91685406 -237.6308558 335.15330519 -228.55810547 333.40576172 C-225.40237947 332.79590541 -222.24674025 332.18560248 -219.09113884 331.57510185 C-217.11930338 331.1946965 -215.14713005 330.81603748 -213.17459297 330.43928719 C-196.69372499 328.55757517 -196.69372499 328.55757517 -183 321 C-181.64249539 317.4767655 -181.83243458 313.79824037 -181.8125 310.0625 C-181.79832031 308.85722656 -181.78414062 307.65195313 -181.76953125 306.41015625 C-182.06891865 301.98023756 -182.84465495 299.15534505 -186 296 C-194.74397135 295.23659001 -203.27672283 297.33758998 -211.8203125 298.9921875 C-213.44965931 299.30190602 -215.07912736 299.61098733 -216.70870972 299.91946411 C-220.1103397 300.56513104 -223.51087562 301.21618742 -226.91064453 301.87158203 C-231.25434375 302.70882838 -235.59987843 303.53602066 -239.94618416 304.35961723 C-243.30626818 304.99686205 -246.66566619 305.63766019 -250.02483749 306.27969742 C-251.6265869 306.58575024 -253.22846563 306.89112709 -254.83047867 307.19579697 C-257.07269729 307.62314149 -259.31403656 308.05482788 -261.55517578 308.48779297 C-263.46304367 308.85419388 -263.46304367 308.85419388 -265.40945435 309.22799683 C-268.99737153 309.99943485 -272.47247114 310.99151543 -276 312 C-278.55692077 312.55709376 -281.10821769 313.08867626 -283.67602539 313.58813477 C-284.40868118 313.73312408 -285.14133698 313.8781134 -285.89619446 314.02749634 C-288.29612569 314.50167148 -290.6968656 314.97160355 -293.09765625 315.44140625 C-294.77726293 315.77222068 -296.45682255 316.10327412 -298.13633728 316.43455505 C-301.64693516 317.12639149 -305.15790501 317.81629534 -308.66918945 318.50463867 C-313.16078068 319.38517912 -317.65170404 320.26906868 -322.14238834 321.15422153 C-326.43974843 322.00111564 -330.73744096 322.84631685 -335.03515625 323.69140625 C-335.85010118 323.85180452 -336.66504612 324.0122028 -337.50468636 324.17746162 C-339.82073224 324.63299272 -342.13701143 325.08731729 -344.45336914 325.54125977 C-345.1314563 325.67478348 -345.80954346 325.80830719 -346.50817871 325.94587708 C-358.31162524 328.25427234 -368.96298493 329.9281784 -380 324 C-387.97149193 318.17230961 -394.4577021 310.34971796 -401 303 C-405.83297782 297.58049575 -410.65388058 292.22270184 -415.8828125 287.1796875 C-417.74041933 285.26724357 -419.47291502 283.30898011 -421.2109375 281.2890625 C-425.10173541 276.81034939 -429.26910717 272.65520602 -433.5 268.5 C-438.3453807 263.74129874 -443.01886447 258.92960007 -447.45019531 253.78125 C-451.99472787 248.55804434 -457.14894118 242.73817647 -463 239 C-465.59387169 238.88001871 -465.59387169 238.88001871 -468 239 Z " fill="#FEFEFE" transform="translate(1031,1812)"/>
<path d="M0 0 C81.18 0 162.36 0 246 0 C246 34.65 246 69.3 246 105 C230.82 105 215.64 105 200 105 C200 190.47 200 275.94 200 364 C215.18 364.33 230.36 364.66 246 365 C246 399.32 246 433.64 246 469 C164.82 469 83.64 469 0 469 C0 434.68 0 400.36 0 365 C15.51 365 31.02 365 47 365 C47 279.2 47 193.4 47 105 C31.49 105 15.98 105 0 105 C0 70.35 0 35.7 0 0 Z " fill="#FEFEFE" transform="translate(2294,1766)"/>
<path d="" fill="#FFFFFF" transform="translate(0,0)"/>
<path d="" fill="#FFFFFF" transform="translate(0,0)"/>
<path d="" fill="#FFFFFF" transform="translate(0,0)"/>
<path d="" fill="#FFFFFF" transform="translate(0,0)"/>
<path d="" fill="#FFFFFF" transform="translate(0,0)"/>
<path d="" fill="#FFFFFF" transform="translate(0,0)"/>
<path d="" fill="#FFFFFF" transform="translate(0,0)"/>
<path d="" fill="#FFFFFF" transform="translate(0,0)"/>
<path d="" fill="#FFFFFF" transform="translate(0,0)"/>
<path d="" fill="#FFFFFF" transform="translate(0,0)"/>
<path d="" fill="#FFFFFF" transform="translate(0,0)"/>
<path d="" fill="#FFFFFF" transform="translate(0,0)"/>
<path d="" fill="#FFFFFF" transform="translate(0,0)"/>
<path d="" fill="#FFFFFF" transform="translate(0,0)"/>
<path d="" fill="#FFFFFF" transform="translate(0,0)"/>
<path d="" fill="#FFFFFF" transform="translate(0,0)"/>
<path d="" fill="#FFFFFF" transform="translate(0,0)"/>
<path d="" fill="#FFFFFF" transform="translate(0,0)"/>
<path d="" fill="#FFFFFF" transform="translate(0,0)"/>
<path d="" fill="#FFFFFF" transform="translate(0,0)"/>
<path d="" fill="#FFFFFF" transform="translate(0,0)"/>
<path d="" fill="#FFFFFF" transform="translate(0,0)"/>
<path d="" fill="#FFFFFF" transform="translate(0,0)"/>
<path d="" fill="#FFFFFF" transform="translate(0,0)"/>
<path d="" fill="#FFFFFF" transform="translate(0,0)"/>
<path d="" fill="#FFFFFF" transform="translate(0,0)"/>
<path d="" fill="#FFFFFF" transform="translate(0,0)"/>
<path d="" fill="#FFFFFF" transform="translate(0,0)"/>
<path d="" fill="#FFFFFF" transform="translate(0,0)"/>
<path d="" fill="#FFFFFF" transform="translate(0,0)"/>
<path d="" fill="#FFFFFF" transform="translate(0,0)"/>
<path d="" fill="#FFFFFF" transform="translate(0,0)"/>
<path d="" fill="#FFFFFF" transform="translate(0,0)"/>
<path d="" fill="#FFFFFF" transform="translate(0,0)"/>
<path d="" fill="#FFFFFF" transform="translate(0,0)"/>
<path d="" fill="#FFFFFF" transform="translate(0,0)"/>
<path d="" fill="#FFFFFF" transform="translate(0,0)"/>
<path d="" fill="#FFFFFF" transform="translate(0,0)"/>
<path d="" fill="#FFFFFF" transform="translate(0,0)"/>
<path d="" fill="#FFFFFF" transform="translate(0,0)"/>
<path d="" fill="#FFFFFF" transform="translate(0,0)"/>
<path d="" fill="#FFFFFF" transform="translate(0,0)"/>
<path d="" fill="#FFFFFF" transform="translate(0,0)"/>
<path d="" fill="#FFFFFF" transform="translate(0,0)"/>
<path d="" fill="#FFFFFF" transform="translate(0,0)"/>
<path d="" fill="#FFFFFF" transform="translate(0,0)"/>
<path d="" fill="#FFFFFF" transform="translate(0,0)"/>
<path d="" fill="#FFFFFF" transform="translate(0,0)"/>
<path d="" fill="#FFFFFF" transform="translate(0,0)"/>
<path d="" fill="#FFFFFF" transform="translate(0,0)"/>
<path d="" fill="#FFFFFF" transform="translate(0,0)"/>
<path d="" fill="#FFFFFF" transform="translate(0,0)"/>
<path d="" fill="#FFFFFF" transform="translate(0,0)"/>
<path d="" fill="#FFFFFF" transform="translate(0,0)"/>
</svg>
